<mxfile host="Electron" agent="Mozilla/5.0 (Windows NT 10.0; Win64; x64) AppleWebKit/537.36 (KHTML, like Gecko) draw.io/24.7.8 Chrome/128.0.6613.36 Electron/32.0.1 Safari/537.36" version="24.7.8">
  <diagram name="Страница — 1" id="f-a4rc2hy_WhRukogphf">
    <mxGraphModel dx="757" dy="566" grid="1" gridSize="10" guides="1" tooltips="1" connect="1" arrows="1" fold="1" page="1" pageScale="1" pageWidth="827" pageHeight="1169" math="0" shadow="0">
      <root>
        <mxCell id="0" />
        <mxCell id="1" parent="0" />
        <mxCell id="7B_emw01SbC9Y4quh23t-2" value="" style="ellipse;whiteSpace=wrap;html=1;" vertex="1" parent="1">
          <mxGeometry x="280" y="610" width="120" height="80" as="geometry" />
        </mxCell>
        <mxCell id="7B_emw01SbC9Y4quh23t-3" value="user" style="shape=umlActor;verticalLabelPosition=bottom;verticalAlign=top;html=1;outlineConnect=0;" vertex="1" parent="1">
          <mxGeometry x="180" y="500" width="30" height="60" as="geometry" />
        </mxCell>
        <mxCell id="7B_emw01SbC9Y4quh23t-19" style="edgeStyle=orthogonalEdgeStyle;rounded=0;orthogonalLoop=1;jettySize=auto;html=1;exitX=0.5;exitY=0.5;exitDx=0;exitDy=0;exitPerimeter=0;entryX=0.5;entryY=0;entryDx=0;entryDy=0;" edge="1" parent="1" source="7B_emw01SbC9Y4quh23t-4" target="7B_emw01SbC9Y4quh23t-17">
          <mxGeometry relative="1" as="geometry" />
        </mxCell>
        <mxCell id="7B_emw01SbC9Y4quh23t-4" value="admin" style="shape=umlActor;verticalLabelPosition=bottom;verticalAlign=top;html=1;outlineConnect=0;" vertex="1" parent="1">
          <mxGeometry x="740" y="540" width="30" height="60" as="geometry" />
        </mxCell>
        <mxCell id="7B_emw01SbC9Y4quh23t-11" style="edgeStyle=orthogonalEdgeStyle;rounded=0;orthogonalLoop=1;jettySize=auto;html=1;exitX=0.5;exitY=0.5;exitDx=0;exitDy=0;exitPerimeter=0;entryX=0.456;entryY=0.018;entryDx=0;entryDy=0;entryPerimeter=0;" edge="1" parent="1" source="7B_emw01SbC9Y4quh23t-3" target="7B_emw01SbC9Y4quh23t-2">
          <mxGeometry relative="1" as="geometry" />
        </mxCell>
        <mxCell id="7B_emw01SbC9Y4quh23t-12" value="" style="ellipse;whiteSpace=wrap;html=1;" vertex="1" parent="1">
          <mxGeometry x="290" y="820" width="120" height="80" as="geometry" />
        </mxCell>
        <mxCell id="7B_emw01SbC9Y4quh23t-13" style="edgeStyle=orthogonalEdgeStyle;rounded=0;orthogonalLoop=1;jettySize=auto;html=1;exitX=0.5;exitY=0;exitDx=0;exitDy=0;dashed=1;" edge="1" parent="1" source="7B_emw01SbC9Y4quh23t-12">
          <mxGeometry relative="1" as="geometry">
            <mxPoint x="350" y="692" as="targetPoint" />
            <Array as="points">
              <mxPoint x="350" y="760" />
              <mxPoint x="350" y="760" />
            </Array>
          </mxGeometry>
        </mxCell>
        <mxCell id="7B_emw01SbC9Y4quh23t-14" value="include" style="edgeLabel;html=1;align=center;verticalAlign=middle;resizable=0;points=[];" vertex="1" connectable="0" parent="7B_emw01SbC9Y4quh23t-13">
          <mxGeometry x="0.0522" y="1" relative="1" as="geometry">
            <mxPoint as="offset" />
          </mxGeometry>
        </mxCell>
        <mxCell id="7B_emw01SbC9Y4quh23t-15" value="поиск погоды" style="text;html=1;align=center;verticalAlign=middle;whiteSpace=wrap;rounded=0;" vertex="1" parent="1">
          <mxGeometry x="310" y="635" width="60" height="30" as="geometry" />
        </mxCell>
        <mxCell id="7B_emw01SbC9Y4quh23t-16" value="поиск по городу" style="text;html=1;align=center;verticalAlign=middle;whiteSpace=wrap;rounded=0;" vertex="1" parent="1">
          <mxGeometry x="320" y="845" width="60" height="30" as="geometry" />
        </mxCell>
        <mxCell id="7B_emw01SbC9Y4quh23t-17" value="" style="ellipse;whiteSpace=wrap;html=1;" vertex="1" parent="1">
          <mxGeometry x="550" y="630" width="120" height="80" as="geometry" />
        </mxCell>
        <mxCell id="7B_emw01SbC9Y4quh23t-20" value="" style="ellipse;whiteSpace=wrap;html=1;" vertex="1" parent="1">
          <mxGeometry x="640" y="795" width="120" height="80" as="geometry" />
        </mxCell>
        <mxCell id="7B_emw01SbC9Y4quh23t-21" style="edgeStyle=orthogonalEdgeStyle;rounded=0;orthogonalLoop=1;jettySize=auto;html=1;exitX=0.5;exitY=0.5;exitDx=0;exitDy=0;exitPerimeter=0;entryX=0.588;entryY=0.048;entryDx=0;entryDy=0;entryPerimeter=0;" edge="1" parent="1" source="7B_emw01SbC9Y4quh23t-4" target="7B_emw01SbC9Y4quh23t-20">
          <mxGeometry relative="1" as="geometry" />
        </mxCell>
        <mxCell id="7B_emw01SbC9Y4quh23t-22" value="добавление погооды" style="text;html=1;align=center;verticalAlign=middle;whiteSpace=wrap;rounded=0;" vertex="1" parent="1">
          <mxGeometry x="580" y="655" width="60" height="30" as="geometry" />
        </mxCell>
        <mxCell id="7B_emw01SbC9Y4quh23t-23" value="редактирование информации&amp;nbsp;" style="text;html=1;align=center;verticalAlign=middle;whiteSpace=wrap;rounded=0;" vertex="1" parent="1">
          <mxGeometry x="670" y="820" width="60" height="30" as="geometry" />
        </mxCell>
      </root>
    </mxGraphModel>
  </diagram>
</mxfile>
